<svg width="143" height="40" viewBox="0 0 143 40" fill="none" xmlns="http://www.w3.org/2000/svg">
    <g clip-path="url(#clip0_962_839)">
        <path
            d="M142.412 21.2841C142.027 20.5676 141.488 19.9445 140.834 19.459C140.14 18.9509 139.369 18.556 138.55 18.289C137.682 18.0021 136.788 17.7528 135.892 17.5505C134.891 17.3153 133.868 17.0578 132.85 16.7815C131.813 16.5016 130.951 16.1488 130.292 15.7314C130.049 15.6138 129.768 15.3692 129.768 14.8165C129.77 14.5954 129.824 14.3779 129.926 14.1815L129.944 14.1509C130.18 13.8217 130.55 13.5312 131.091 13.262C131.631 12.9927 132.412 12.8633 133.486 12.8633C134.333 12.8633 135.059 12.9809 135.642 13.209C136.164 13.4027 136.649 13.6843 137.075 14.0416C137.431 14.3473 137.737 14.7068 137.982 15.107C138.144 15.3774 138.29 15.6326 138.415 15.8678L142.149 13.4525C141.893 12.8859 141.576 12.3482 141.205 11.8485C140.716 11.1918 140.131 10.6109 139.471 10.1246C138.701 9.56151 137.848 9.12116 136.942 8.81934C135.962 8.4795 134.797 8.30664 133.484 8.30664C131.94 8.30664 130.64 8.51478 129.618 8.924C128.596 9.33322 127.763 9.83533 127.14 10.4104C126.564 10.9286 126.09 11.55 125.743 12.2424C125.464 12.7978 125.249 13.3828 125.102 13.9863C125.075 14.1474 125.046 14.3391 125.017 14.5366C124.991 14.7142 124.977 14.8934 124.976 15.0729C124.976 16.1241 125.24 17.012 125.762 17.7093C126.309 18.4357 126.995 19.0471 127.78 19.5084C128.619 20.0031 129.516 20.3922 130.451 20.6667C131.427 20.9572 132.361 21.2064 133.228 21.4075C134.072 21.611 134.88 21.8179 135.632 22.0237C136.306 22.192 136.948 22.4702 137.531 22.8468C137.984 23.1996 138.209 23.6135 138.209 24.0992C138.218 24.3375 138.167 24.5741 138.061 24.7881C137.955 25.002 137.798 25.1867 137.604 25.3257C137.222 25.601 136.797 25.8126 136.346 25.9524C135.88 26.1033 135.398 26.2023 134.91 26.2476C134.438 26.2923 134.044 26.3146 133.743 26.3146C132.95 26.3308 132.159 26.2394 131.39 26.043C130.845 25.8998 130.322 25.6843 129.834 25.4021C129.479 25.1971 129.16 24.9353 128.89 24.6272C128.722 24.431 128.569 24.2236 128.43 24.0063L128 23.3819L124.271 25.7949C124.613 26.3234 124.983 26.8337 125.38 27.3236C125.928 27.9941 126.57 28.583 127.285 29.0722C128.133 29.6508 129.059 30.105 130.036 30.4209C131.091 30.7737 132.337 30.956 133.739 30.956C134.769 30.9679 135.798 30.8669 136.806 30.6549C137.608 30.4846 138.387 30.2193 139.125 29.8647C139.723 29.5768 140.273 29.1997 140.757 28.7464C141.163 28.3607 141.528 27.9334 141.845 27.4717C142.529 26.4353 142.924 25.2367 142.992 23.9981C142.999 22.9233 142.802 22.0049 142.412 21.2841Z"
            fill="#4169E1"></path>
        <path
            d="M54.6917 8.13477C52.1153 8.13788 49.6453 9.15924 47.8235 10.9748C46.0016 12.7904 44.9768 15.252 44.9736 17.8196V30.5113H49.6262V17.8196C49.6262 16.4808 50.1599 15.1967 51.1099 14.25C52.0598 13.3033 53.3483 12.7714 54.6917 12.7714C56.0352 12.7714 57.3237 13.3033 58.2736 14.25C59.2236 15.1967 59.7573 16.4808 59.7573 17.8196V30.5113H64.4099V17.8196C64.4067 15.252 63.3819 12.7904 61.56 10.9748C59.7382 9.15924 57.2682 8.13788 54.6917 8.13477Z"
            fill="#4169E1"></path>
        <path
            d="M111.222 8.13477C109.431 8.13492 107.665 8.55377 106.065 9.35765C104.466 10.1615 103.078 11.328 102.013 12.7635C100.948 14.1989 100.236 15.8632 99.9339 17.6228C99.6315 19.3823 99.7475 21.1879 100.272 22.8947C100.797 24.6014 101.717 26.1617 102.957 27.4501C104.196 28.7385 105.722 29.7192 107.411 30.3133C109.101 30.9074 110.906 31.0984 112.683 30.871C114.459 30.6436 116.158 30.004 117.641 29.0038L118.022 28.7451V30.5089H122.675V19.5494C122.672 16.5232 121.464 13.6218 119.317 11.4819C117.17 9.34194 114.259 8.13819 111.222 8.13477ZM111.222 26.3262C109.877 26.3264 108.562 25.9291 107.443 25.1844C106.325 24.4397 105.453 23.3811 104.938 22.1426C104.423 20.904 104.288 19.5411 104.551 18.2262C104.813 16.9113 105.461 15.7034 106.412 14.7555C107.363 13.8075 108.575 13.1619 109.895 12.9004C111.214 12.6389 112.582 12.7732 113.824 13.2864C115.067 13.7996 116.129 14.6685 116.877 15.7833C117.624 16.8981 118.023 18.2087 118.022 19.5494C118.02 21.346 117.303 23.0685 116.028 24.3389C114.754 25.6093 113.025 26.324 111.222 26.3262Z"
            fill="#4169E1"></path>
        <path
            d="M94.7951 21.2841V0H90.1484V21.2841C90.1512 23.8094 91.1427 26.234 92.9117 28.0421C94.6808 29.8501 97.088 30.899 99.6211 30.9654V26.3206C98.3223 26.2573 97.0975 25.6995 96.1994 24.7622C95.3014 23.825 94.7987 22.58 94.7951 21.2841Z"
            fill="#4169E1"></path>
        <path
            d="M86.7883 8.58398H82.1995V21.3039C82.1995 23.4746 80.7918 25.4337 78.7776 26.0687C77.1575 26.579 75.4737 26.3192 74.1475 25.3537C73.5057 24.8848 72.9833 24.2722 72.6224 23.5653C72.2615 22.8584 72.0721 22.077 72.0696 21.2839V8.58398H67.417V21.2439C67.417 25.6324 70.2949 29.4753 74.4165 30.5948C76.9676 31.2862 79.6083 30.9887 81.8372 29.7552L82.1995 29.5541V30.3173C82.1975 31.6132 81.6963 32.8589 80.7993 33.7972C79.9023 34.7355 78.6781 35.2948 77.3794 35.3596V39.9998C79.9127 39.933 82.32 38.884 84.0892 37.0758C85.8585 35.2676 86.8501 32.8428 86.8532 30.3173V9.03906H86.681L86.7883 8.58398Z"
            fill="#4169E1"></path>
        <path
            d="M32.6844 5.55139C31.4962 4.36226 30.0832 3.41979 28.527 2.77853C26.9709 2.13726 25.3027 1.80994 23.6188 1.8155C21.9349 1.80981 20.2665 2.13707 18.7104 2.77834C17.1543 3.41962 15.7413 4.36216 14.5532 5.55139L1.44269 18.6158C1.1346 18.9241 0.962009 19.3417 0.962894 19.7768C0.963779 20.2119 1.13806 20.6289 1.44741 20.9359C1.75675 21.2429 2.17582 21.4149 2.61241 21.4141C3.04901 21.4132 3.46737 21.2395 3.77546 20.9312L16.8848 7.86677C18.6808 6.12697 21.092 5.16174 23.5966 5.17984C26.1012 5.19795 28.4981 6.19794 30.2686 7.96351C32.0392 9.72909 33.0411 12.1183 33.0578 14.6144C33.0744 17.1105 32.1044 19.5128 30.3575 21.3016L17.2482 34.3661C16.9392 34.6734 16.7653 35.0905 16.7649 35.5256C16.7644 35.9607 16.9374 36.3782 17.2458 36.6861C17.5542 36.9941 17.9728 37.1674 18.4094 37.1678C18.846 37.1683 19.2649 36.9958 19.5739 36.6885L32.6844 23.6205C35.0851 21.2225 36.4333 17.9734 36.4333 14.586C36.4333 11.1985 35.0851 7.94943 32.6844 5.55139Z"
            fill="#4169E1"></path>
        <path
            d="M30.8477 14.5814C30.8478 13.1562 30.4236 11.763 29.629 10.5781C28.8344 9.3931 27.705 8.46962 26.3836 7.92443C25.0623 7.37925 23.6084 7.23686 22.2058 7.51528C20.8033 7.7937 19.5151 8.48041 18.5042 9.48855L1.0857 26.8474C0.792938 27.158 0.633026 27.57 0.639859 27.996C0.646691 28.4221 0.819731 28.8287 1.1223 29.1298C1.42487 29.4309 1.8332 29.6027 2.26073 29.6089C2.68826 29.615 3.10139 29.4551 3.41257 29.1628L20.6399 12.0144L20.6671 11.9827C20.7202 11.9227 20.7721 11.8651 20.8299 11.8039C20.8877 11.7428 20.9632 11.6863 21.034 11.6205L21.073 11.5852C21.8129 10.9602 22.7582 10.6293 23.7278 10.6559C24.6973 10.6824 25.623 11.0646 26.3273 11.7291C27.0317 12.3936 27.4653 13.2938 27.545 14.2571C27.6246 15.2205 27.3449 16.1792 26.7592 16.9497L26.7474 16.9662C26.6425 17.1048 26.5286 17.2364 26.4064 17.3601C26.2786 17.4865 26.1426 17.6044 25.9993 17.7129L8.98787 34.7226C8.6793 35.0301 8.50596 35.4471 8.50596 35.882C8.50596 36.3169 8.6793 36.734 8.98787 37.0415C9.29643 37.349 9.71493 37.5217 10.1513 37.5217C10.5877 37.5217 11.0062 37.349 11.3147 37.0415L28.7321 19.6826C29.4059 19.0141 29.9399 18.219 30.303 17.3434C30.6662 16.4677 30.8514 15.5289 30.8477 14.5814Z"
            fill="#4169E1"></path>
        <path
            d="M21.9847 18.1574C21.1168 17.7706 20.4224 17.0786 20.0343 16.2136L19.9163 15.9561L0.674748 35.1329C0.306608 35.489 0.0721262 35.96 0.0104335 36.4676C-0.0208502 36.6917 -0.000793865 36.9199 0.0690973 37.1352C0.138988 37.3505 0.256899 37.5472 0.413978 37.7105C0.554816 37.8459 0.721192 37.9521 0.903476 38.0229C1.08576 38.0937 1.28034 38.1279 1.47594 38.1233C2.05612 38.1088 2.60722 37.8672 3.00988 37.4506L22.2432 18.275L21.9847 18.1574Z"
            fill="#4169E1"></path>
    </g>
    <defs>
        <clipPath id="clip0_962_839">
            <rect width="143" height="40" fill="white"></rect>
        </clipPath>
    </defs>
</svg>